<?xml version="1.0" encoding="UTF-8"?>
<svg id="Layer_2" data-name="Layer 2" xmlns="http://www.w3.org/2000/svg" viewBox="0 0 934.56 208.4">
  <defs>
    <style>
      .cls-1 {
        fill: #c73629;
      }

      .cls-1, .cls-2 {
        stroke-width: 0px;
      }

      .cls-2 {
        fill: #4d4d4f;
      }
    </style>
  </defs>
  <g id="Layer_1-2" data-name="Layer 1">
    <g>
      <path class="cls-1" d="m165.95,68.82C157.56,22.37,112.33-8.16,65.79,1.93,18.16,12.25-10.26,61.13,3.45,107.91c9.3,31.69,34.53,53.33,57.77,72.59,12.4,10.23,24,18.77,32.45,24.7,7.48,5.26,17.8,3.39,22.98-4.15,5.82-8.51,13.74-20.55,21.75-34.5,16.49-28.65,34.21-60.84,27.54-97.74ZM96.13,21.63c8.71,0,15.76,10.99,15.76,24.53s-7.05,24.56-15.76,24.56-15.76-10.99-15.76-24.56,7.05-24.53,15.76-24.53Zm-45.99,8.3c8.16-3.04,18.59,4.79,23.33,17.48,4.74,12.69,1.99,25.46-6.17,28.51-8.16,3.04-18.59-4.79-23.33-17.48-4.74-12.72-1.99-25.47,6.17-28.51Zm-21.78,70.34c-9.3-8.8-12.19-20.82-6.49-26.87,5.73-6.02,17.89-3.8,27.19,5,9.3,8.8,12.19,20.85,6.49,26.9-5.73,6.02-17.89,3.8-27.19-5.03Zm94.64,36.6c-8.01,1.43-19.79-6.46-30.61-4.53-10.82,1.96-19.09,13.51-27.1,14.94-8.04,1.46-13.8-4.12-15.03-10.93-1.23-6.84,2.34-14.91,8.65-23.48,7.86-10.67,11.26-27.92,24.47-30.32,13.24-2.37,22.45,12.6,33.53,19.82,8.92,5.85,15.09,12.16,16.31,18.97,1.23,6.81-2.22,14.06-10.23,15.52Zm18.16-56.95c-5.64,11.49-16.25,17.83-23.74,14.18-7.46-3.65-8.95-15.93-3.33-27.42,5.64-11.49,16.25-17.86,23.74-14.21,7.46,3.68,8.95,15.96,3.33,27.45Z"/>
      <g>
        <path class="cls-2" d="m288.81,48.56c5.63,3.74,10.17,8.76,13.6,15.07,3.43,6.31,5.15,13.21,5.15,20.68s-1.72,14.22-5.15,20.59c-3.43,6.37-7.97,11.43-13.6,15.16-5.64,3.74-11.58,5.61-17.83,5.61h-31.99v34.74c0,3.31-.98,6.01-2.94,8.09-1.96,2.09-4.53,3.13-7.72,3.13s-5.58-1.07-7.54-3.22-2.94-4.81-2.94-8V54.17c0-3.18,1.07-5.85,3.22-7.99,2.14-2.14,4.81-3.22,8-3.22h41.91c6.25,0,12.19,1.87,17.83,5.61Zm-10.94,53.22c2.27-1.96,4.1-4.5,5.51-7.63,1.41-3.13,2.11-6.4,2.11-9.83s-.71-6.71-2.11-9.83c-1.41-3.13-3.25-5.63-5.51-7.54-2.27-1.9-4.57-2.85-6.89-2.85h-31.99v40.62h31.99c2.33,0,4.62-.98,6.89-2.94Z"/>
        <path class="cls-2" d="m405.86,127.33c-2.2,1.84-4.78,2.76-7.72,2.76h-60.66c1.47,7.23,4.84,12.9,10.11,17,5.27,4.11,11.21,6.16,17.83,6.16,5.02,0,8.94-.46,11.76-1.38,2.82-.92,5.06-1.9,6.71-2.94s2.79-1.75,3.4-2.11c2.21-1.11,4.29-1.66,6.25-1.66,2.57,0,4.78.92,6.62,2.76s2.76,3.98,2.76,6.43c0,3.31-1.72,6.31-5.15,9.01-3.43,2.82-8.03,5.21-13.78,7.17-5.76,1.96-11.58,2.94-17.46,2.94-10.3,0-19.27-2.14-26.93-6.43s-13.57-10.2-17.74-17.74-6.25-16.02-6.25-25.46c0-10.54,2.2-19.79,6.62-27.76,4.41-7.96,10.23-14.06,17.46-18.29,7.23-4.23,14.95-6.34,23.16-6.34s15.72,2.2,22.89,6.62c7.17,4.41,12.89,10.36,17.19,17.83,4.29,7.48,6.43,15.57,6.43,24.27-.12,2.94-1.29,5.33-3.49,7.17Zm-68.2-15.62h48.16v-1.29c-.49-5.15-3-9.56-7.54-13.23-4.54-3.68-9.68-5.52-15.44-5.52-14.22,0-22.61,6.68-25.19,20.04Z"/>
        <path class="cls-2" d="m474.66,153.34c1.41,1.65,2.11,3.83,2.11,6.53,0,3.31-1.81,6.1-5.42,8.36s-7.69,3.4-12.22,3.4c-7.6,0-14-1.62-19.21-4.87-5.21-3.24-7.81-10.14-7.81-20.68v-50.73h-8.46c-2.94,0-5.39-.98-7.35-2.94-1.96-1.96-2.94-4.41-2.94-7.35s.98-5.17,2.94-7.08c1.96-1.9,4.41-2.85,7.35-2.85h8.46v-11.76c0-3.19,1.07-5.85,3.22-8,2.14-2.14,4.81-3.22,8-3.22s5.63,1.07,7.72,3.22c2.08,2.14,3.12,4.81,3.12,8v11.76h13.05c2.94,0,5.39.98,7.35,2.94,1.96,1.96,2.94,4.41,2.94,7.35s-.98,5.18-2.94,7.08c-1.96,1.9-4.41,2.85-7.35,2.85h-13.05v49.82c0,2.57.67,4.44,2.02,5.61,1.35,1.17,3.18,1.75,5.51,1.75.98,0,2.33-.24,4.04-.73,1.47-.61,2.88-.92,4.23-.92,1.71,0,3.27.82,4.69,2.48Z"/>
        <path class="cls-2" d="m487.27,150.86c0-3.19,1.59-5.88,4.78-8.09,1.72-1.1,3.49-1.65,5.33-1.65,2.57,0,5.02,1.17,7.35,3.49,3.68,3.8,7.51,6.62,11.49,8.46,3.98,1.84,8.79,2.76,14.43,2.76,9.56-.37,14.34-3.98,14.34-10.85,0-3.55-1.63-6.25-4.87-8.09-3.25-1.84-8.31-3.68-15.17-5.52-7.11-1.96-12.9-3.92-17.37-5.88-4.47-1.96-8.33-4.93-11.58-8.92-3.25-3.98-4.87-9.34-4.87-16.09,0-5.88,1.68-11,5.06-15.35,3.37-4.35,7.78-7.72,13.24-10.11,5.45-2.39,11.24-3.58,17.37-3.58s12.5,1.16,18.75,3.49c6.25,2.33,11.15,5.76,14.71,10.29,1.59,1.96,2.39,4.17,2.39,6.62,0,2.82-1.17,5.15-3.49,6.99-1.72,1.35-3.68,2.02-5.88,2.02-2.7,0-4.9-.85-6.62-2.57-2.21-2.7-5.06-4.84-8.55-6.43-3.49-1.59-7.44-2.39-11.86-2.39-9.31,0-13.97,3.37-13.97,10.11,0,2.7.86,4.87,2.57,6.53,1.72,1.66,3.89,2.94,6.53,3.86,2.63.92,6.34,2.05,11.12,3.4,6.62,1.84,12.13,3.74,16.54,5.7,4.41,1.96,8.15,4.97,11.21,9.01s4.6,9.37,4.6,15.99c0,6.01-1.78,11.24-5.33,15.71-3.56,4.48-8.12,7.88-13.69,10.2-5.58,2.33-11.3,3.49-17.19,3.49-8.09,0-15.62-1.35-22.61-4.04-6.99-2.69-12.68-7.04-17.09-13.05-1.11-1.47-1.66-3.31-1.66-5.51Z"/>
        <path class="cls-2" d="m685.7,161.7c0,3.19-1.04,5.79-3.13,7.81-2.08,2.02-4.47,3.03-7.17,3.03-2.21,0-4.2-.68-5.97-2.02-1.78-1.35-3.16-3.18-4.14-5.52l-9.56-22.24h-54.78l-9.56,22.43c-.86,2.33-2.18,4.14-3.95,5.42-1.78,1.29-3.71,1.93-5.79,1.93-3.19,0-5.61-.86-7.26-2.57-1.66-1.72-2.48-4.04-2.48-6.99,0-1.11.19-2.27.55-3.49l45.77-109.93c.98-2.45,2.45-4.35,4.41-5.7,1.96-1.35,4.17-1.9,6.62-1.66,2.21,0,4.26.64,6.16,1.93,1.9,1.29,3.27,3.1,4.13,5.42l45.22,107.72c.61,1.59.92,3.07.92,4.41Zm-75.74-40.07h36.77l-18.57-43.01-18.2,43.01Z"/>
        <path class="cls-2" d="m783.55,76.41c2.08,2.09,3.13,4.78,3.13,8.09v112.69c0,3.18-1.04,5.85-3.13,7.99-2.09,2.14-4.72,3.22-7.9,3.22s-5.82-1.07-7.9-3.22c-2.09-2.14-3.13-4.81-3.13-7.99v-36.4c-3.06,3.43-7.2,6.41-12.41,8.92s-10.69,3.77-16.45,3.77c-8.46,0-16.12-2.17-22.98-6.53-6.87-4.35-12.29-10.39-16.27-18.11-3.98-7.72-5.97-16.48-5.97-26.29s1.96-18.59,5.88-26.38c3.92-7.78,9.28-13.85,16.09-18.2,6.8-4.35,14.31-6.53,22.52-6.53,6.01,0,11.58,1.1,16.73,3.31,5.15,2.2,9.44,4.96,12.87,8.27.37-2.82,1.56-5.15,3.59-6.99,2.02-1.84,4.5-2.76,7.44-2.76,3.18,0,5.82,1.04,7.9,3.13Zm-25.55,68.11c5.02-5.82,7.54-13.14,7.54-21.97s-2.51-16.18-7.54-22.06c-5.02-5.88-11.52-8.82-19.48-8.82s-14.28,2.94-19.3,8.82c-5.02,5.88-7.54,13.24-7.54,22.06s2.48,16.15,7.45,21.97c4.96,5.82,11.43,8.73,19.39,8.73s14.46-2.91,19.48-8.73Z"/>
        <path class="cls-2" d="m888.7,76.5c2.08,2.14,3.13,4.81,3.13,7.99v46.69c0,13.24-3.65,23.59-10.94,31.07-7.29,7.47-17.68,11.21-31.16,11.21s-23.84-3.74-31.07-11.21c-7.23-7.47-10.85-17.83-10.85-31.07v-46.69c0-3.18,1.04-5.85,3.13-7.99,2.08-2.14,4.72-3.22,7.9-3.22s5.82,1.07,7.9,3.22c2.08,2.14,3.13,4.81,3.13,7.99v46.69c0,7.48,1.65,13.03,4.96,16.64,3.31,3.62,8.27,5.42,14.89,5.42s11.76-1.81,15.07-5.42c3.31-3.61,4.96-9.16,4.96-16.64v-46.69c0-3.18,1.04-5.85,3.13-7.99,2.08-2.14,4.72-3.22,7.9-3.22s5.82,1.07,7.9,3.22Z"/>
        <path class="cls-2" d="m913.97,59.31c-1.72-1.35-2.57-3.74-2.57-7.17v-3.49c0-3.43.92-5.82,2.76-7.17,1.84-1.35,4.78-2.02,8.83-2.02,4.29,0,7.29.68,9.01,2.02,1.72,1.35,2.57,3.74,2.57,7.17v3.49c0,3.56-.89,5.97-2.66,7.26-1.78,1.29-4.81,1.93-9.1,1.93s-7.11-.67-8.83-2.02Zm16.91,109.1c-2.09,2.14-4.72,3.22-7.9,3.22s-5.82-1.07-7.9-3.22c-2.09-2.14-3.13-4.81-3.13-8v-75.92c0-3.18,1.04-5.85,3.13-7.99,2.08-2.14,4.72-3.22,7.9-3.22s5.82,1.07,7.9,3.22c2.08,2.14,3.13,4.81,3.13,7.99v75.92c0,3.19-1.04,5.85-3.13,8Z"/>
      </g>
    </g>
  </g>
</svg>